<mxfile host="app.diagrams.net" modified="2023-11-06T09:31:34.845Z" agent="Mozilla/5.0 (Windows NT 10.0; Win64; x64) AppleWebKit/537.36 (KHTML, like Gecko) Chrome/116.0.0.0 Safari/537.36" etag="DaYWGkEA0n3SMdOD7pmm" version="22.0.8" type="device">
  <diagram id="emRm8DuHcGza5pw8giiO" name="Trang-2">
    <mxGraphModel dx="1258" dy="699" grid="1" gridSize="10" guides="1" tooltips="1" connect="1" arrows="1" fold="1" page="1" pageScale="1" pageWidth="827" pageHeight="1169" math="0" shadow="0">
      <root>
        <mxCell id="0" />
        <mxCell id="1" parent="0" />
        <mxCell id="ZrDMNxIQhQrpCvPgy3qg-4" style="edgeStyle=orthogonalEdgeStyle;rounded=0;orthogonalLoop=1;jettySize=auto;html=1;" edge="1" parent="1" source="ZrDMNxIQhQrpCvPgy3qg-2" target="ZrDMNxIQhQrpCvPgy3qg-3">
          <mxGeometry relative="1" as="geometry" />
        </mxCell>
        <mxCell id="ZrDMNxIQhQrpCvPgy3qg-2" value="Start" style="ellipse;whiteSpace=wrap;html=1;" vertex="1" parent="1">
          <mxGeometry x="60" y="30" width="120" height="80" as="geometry" />
        </mxCell>
        <mxCell id="ZrDMNxIQhQrpCvPgy3qg-6" style="edgeStyle=orthogonalEdgeStyle;rounded=0;orthogonalLoop=1;jettySize=auto;html=1;entryX=0.5;entryY=0;entryDx=0;entryDy=0;" edge="1" parent="1" source="ZrDMNxIQhQrpCvPgy3qg-3" target="ZrDMNxIQhQrpCvPgy3qg-5">
          <mxGeometry relative="1" as="geometry" />
        </mxCell>
        <mxCell id="ZrDMNxIQhQrpCvPgy3qg-3" value="a,b,c max" style="rounded=0;whiteSpace=wrap;html=1;" vertex="1" parent="1">
          <mxGeometry x="60" y="180" width="120" height="60" as="geometry" />
        </mxCell>
        <mxCell id="ZrDMNxIQhQrpCvPgy3qg-11" style="edgeStyle=orthogonalEdgeStyle;rounded=0;orthogonalLoop=1;jettySize=auto;html=1;entryX=0.5;entryY=0;entryDx=0;entryDy=0;" edge="1" parent="1" source="ZrDMNxIQhQrpCvPgy3qg-5" target="ZrDMNxIQhQrpCvPgy3qg-9">
          <mxGeometry relative="1" as="geometry" />
        </mxCell>
        <mxCell id="ZrDMNxIQhQrpCvPgy3qg-5" value="a,b,c" style="shape=parallelogram;perimeter=parallelogramPerimeter;whiteSpace=wrap;html=1;fixedSize=1;" vertex="1" parent="1">
          <mxGeometry x="50" y="300" width="140" height="60" as="geometry" />
        </mxCell>
        <mxCell id="ZrDMNxIQhQrpCvPgy3qg-14" style="edgeStyle=orthogonalEdgeStyle;rounded=0;orthogonalLoop=1;jettySize=auto;html=1;entryX=0;entryY=0.5;entryDx=0;entryDy=0;" edge="1" parent="1" source="ZrDMNxIQhQrpCvPgy3qg-9" target="ZrDMNxIQhQrpCvPgy3qg-12">
          <mxGeometry relative="1" as="geometry">
            <mxPoint x="270" y="460" as="targetPoint" />
          </mxGeometry>
        </mxCell>
        <mxCell id="ZrDMNxIQhQrpCvPgy3qg-9" value="max = a" style="rounded=0;whiteSpace=wrap;html=1;" vertex="1" parent="1">
          <mxGeometry x="60" y="430" width="120" height="60" as="geometry" />
        </mxCell>
        <mxCell id="ZrDMNxIQhQrpCvPgy3qg-17" style="edgeStyle=orthogonalEdgeStyle;rounded=0;orthogonalLoop=1;jettySize=auto;html=1;entryX=0;entryY=0.5;entryDx=0;entryDy=0;" edge="1" parent="1" source="ZrDMNxIQhQrpCvPgy3qg-12" target="ZrDMNxIQhQrpCvPgy3qg-20">
          <mxGeometry relative="1" as="geometry">
            <mxPoint x="325" y="360" as="targetPoint" />
            <Array as="points">
              <mxPoint x="325" y="360" />
            </Array>
          </mxGeometry>
        </mxCell>
        <mxCell id="ZrDMNxIQhQrpCvPgy3qg-26" value="true" style="edgeLabel;html=1;align=center;verticalAlign=middle;resizable=0;points=[];" vertex="1" connectable="0" parent="ZrDMNxIQhQrpCvPgy3qg-17">
          <mxGeometry x="-0.1454" y="1" relative="1" as="geometry">
            <mxPoint as="offset" />
          </mxGeometry>
        </mxCell>
        <mxCell id="ZrDMNxIQhQrpCvPgy3qg-12" value="" style="rhombus;whiteSpace=wrap;html=1;" vertex="1" parent="1">
          <mxGeometry x="280" y="418.75" width="90" height="82.5" as="geometry" />
        </mxCell>
        <mxCell id="ZrDMNxIQhQrpCvPgy3qg-32" style="edgeStyle=orthogonalEdgeStyle;rounded=0;orthogonalLoop=1;jettySize=auto;html=1;" edge="1" parent="1" source="ZrDMNxIQhQrpCvPgy3qg-20">
          <mxGeometry relative="1" as="geometry">
            <mxPoint x="590" y="420" as="targetPoint" />
          </mxGeometry>
        </mxCell>
        <mxCell id="ZrDMNxIQhQrpCvPgy3qg-20" value="max = b" style="rounded=0;whiteSpace=wrap;html=1;" vertex="1" parent="1">
          <mxGeometry x="400" y="330" width="100" height="60" as="geometry" />
        </mxCell>
        <mxCell id="ZrDMNxIQhQrpCvPgy3qg-37" style="edgeStyle=orthogonalEdgeStyle;rounded=0;orthogonalLoop=1;jettySize=auto;html=1;exitX=1;exitY=0.5;exitDx=0;exitDy=0;entryX=0;entryY=0.5;entryDx=0;entryDy=0;" edge="1" parent="1" source="ZrDMNxIQhQrpCvPgy3qg-33" target="ZrDMNxIQhQrpCvPgy3qg-36">
          <mxGeometry relative="1" as="geometry" />
        </mxCell>
        <mxCell id="ZrDMNxIQhQrpCvPgy3qg-40" value="false" style="edgeLabel;html=1;align=center;verticalAlign=middle;resizable=0;points=[];" vertex="1" connectable="0" parent="ZrDMNxIQhQrpCvPgy3qg-37">
          <mxGeometry x="-0.057" relative="1" as="geometry">
            <mxPoint as="offset" />
          </mxGeometry>
        </mxCell>
        <mxCell id="ZrDMNxIQhQrpCvPgy3qg-33" value="max &amp;lt; b" style="rhombus;whiteSpace=wrap;html=1;" vertex="1" parent="1">
          <mxGeometry x="280" y="420" width="90" height="82.5" as="geometry" />
        </mxCell>
        <mxCell id="ZrDMNxIQhQrpCvPgy3qg-42" style="edgeStyle=orthogonalEdgeStyle;rounded=0;orthogonalLoop=1;jettySize=auto;html=1;entryX=0;entryY=0.5;entryDx=0;entryDy=0;" edge="1" parent="1" source="ZrDMNxIQhQrpCvPgy3qg-36" target="ZrDMNxIQhQrpCvPgy3qg-43">
          <mxGeometry relative="1" as="geometry">
            <mxPoint x="590" y="560" as="targetPoint" />
            <Array as="points">
              <mxPoint x="590" y="570" />
            </Array>
          </mxGeometry>
        </mxCell>
        <mxCell id="ZrDMNxIQhQrpCvPgy3qg-44" value="true" style="edgeLabel;html=1;align=center;verticalAlign=middle;resizable=0;points=[];" vertex="1" connectable="0" parent="ZrDMNxIQhQrpCvPgy3qg-42">
          <mxGeometry x="0.4905" y="-1" relative="1" as="geometry">
            <mxPoint as="offset" />
          </mxGeometry>
        </mxCell>
        <mxCell id="ZrDMNxIQhQrpCvPgy3qg-47" style="edgeStyle=orthogonalEdgeStyle;rounded=0;orthogonalLoop=1;jettySize=auto;html=1;" edge="1" parent="1" source="ZrDMNxIQhQrpCvPgy3qg-36" target="ZrDMNxIQhQrpCvPgy3qg-46">
          <mxGeometry relative="1" as="geometry" />
        </mxCell>
        <mxCell id="ZrDMNxIQhQrpCvPgy3qg-48" value="false" style="edgeLabel;html=1;align=center;verticalAlign=middle;resizable=0;points=[];" vertex="1" connectable="0" parent="ZrDMNxIQhQrpCvPgy3qg-47">
          <mxGeometry x="-0.2036" y="1" relative="1" as="geometry">
            <mxPoint as="offset" />
          </mxGeometry>
        </mxCell>
        <mxCell id="ZrDMNxIQhQrpCvPgy3qg-36" value="max &amp;lt; c" style="rhombus;whiteSpace=wrap;html=1;" vertex="1" parent="1">
          <mxGeometry x="550" y="420" width="80" height="81.25" as="geometry" />
        </mxCell>
        <mxCell id="ZrDMNxIQhQrpCvPgy3qg-58" style="edgeStyle=orthogonalEdgeStyle;rounded=0;orthogonalLoop=1;jettySize=auto;html=1;entryX=1;entryY=0.5;entryDx=0;entryDy=0;" edge="1" parent="1" source="ZrDMNxIQhQrpCvPgy3qg-43" target="ZrDMNxIQhQrpCvPgy3qg-46">
          <mxGeometry relative="1" as="geometry">
            <mxPoint x="780" y="210" as="targetPoint" />
            <Array as="points">
              <mxPoint x="800" y="570" />
              <mxPoint x="800" y="210" />
            </Array>
          </mxGeometry>
        </mxCell>
        <mxCell id="ZrDMNxIQhQrpCvPgy3qg-60" value="Text" style="edgeLabel;html=1;align=center;verticalAlign=middle;resizable=0;points=[];" vertex="1" connectable="0" parent="ZrDMNxIQhQrpCvPgy3qg-58">
          <mxGeometry x="0.4148" y="5" relative="1" as="geometry">
            <mxPoint as="offset" />
          </mxGeometry>
        </mxCell>
        <mxCell id="ZrDMNxIQhQrpCvPgy3qg-43" value="max = c" style="rounded=0;whiteSpace=wrap;html=1;" vertex="1" parent="1">
          <mxGeometry x="650" y="540" width="120" height="60" as="geometry" />
        </mxCell>
        <mxCell id="ZrDMNxIQhQrpCvPgy3qg-61" style="edgeStyle=orthogonalEdgeStyle;rounded=0;orthogonalLoop=1;jettySize=auto;html=1;entryX=0.5;entryY=1;entryDx=0;entryDy=0;" edge="1" parent="1" source="ZrDMNxIQhQrpCvPgy3qg-46" target="ZrDMNxIQhQrpCvPgy3qg-49">
          <mxGeometry relative="1" as="geometry" />
        </mxCell>
        <mxCell id="ZrDMNxIQhQrpCvPgy3qg-46" value="max" style="shape=parallelogram;perimeter=parallelogramPerimeter;whiteSpace=wrap;html=1;fixedSize=1;" vertex="1" parent="1">
          <mxGeometry x="650" y="180" width="120" height="60" as="geometry" />
        </mxCell>
        <mxCell id="ZrDMNxIQhQrpCvPgy3qg-49" value=";end" style="ellipse;whiteSpace=wrap;html=1;" vertex="1" parent="1">
          <mxGeometry x="650" y="30" width="120" height="80" as="geometry" />
        </mxCell>
      </root>
    </mxGraphModel>
  </diagram>
</mxfile>
